<?xml version="1.0" encoding="utf-8"?>
<!-- Generator: Adobe Illustrator 19.0.0, SVG Export Plug-In . SVG Version: 6.00 Build 0)  -->
<svg version="1.1" id="Capa_1" xmlns="http://www.w3.org/2000/svg" xmlns:xlink="http://www.w3.org/1999/xlink" x="0px" y="0px"
	 viewBox="-291 383.2 27.8 27.8" style="enable-background:new -291 383.2 27.8 27.8;" xml:space="preserve">
<style type="text/css">
	.st0{fill:#454545;}
</style>
<g>
	<path class="st0" d="M-280.6,406h4.6v5h-4.6V406z M-269.9,384.8c-1.2-1.1-3.4-1.6-6.7-1.6c-3.7,0-6.2,0.5-7.5,1.5
		c-1.3,1-1.9,3-1.9,6l0,1h4.6l0-1c0-1.4,0.3-2.4,0.9-2.9c0.6-0.5,1.8-0.7,3.6-0.7c1.9,0,3.2,0.2,3.7,0.7c0.6,0.5,0.8,1.5,0.8,3
		c0,1.9-0.7,3.1-2.2,3.8l-1.8,0.8c-1.9,0.8-3,1.5-3.5,2.3c-0.4,0.7-0.7,2.2-0.7,4.5h4.7v-0.6c0-1.4,1-2.5,3-3.4
		c2-0.9,3.3-1.7,3.9-2.7c0.6-0.9,0.9-2.5,0.9-4.8C-268.1,387.9-268.7,385.9-269.9,384.8z"/>
</g>
</svg>
