<?xml version="1.0" encoding="utf-8"?>
<!-- Generator: Adobe Illustrator 19.0.0, SVG Export Plug-In . SVG Version: 6.00 Build 0)  -->
<svg version="1.1" id="Capa_1" xmlns="http://www.w3.org/2000/svg" xmlns:xlink="http://www.w3.org/1999/xlink" x="0px" y="0px"
	 viewBox="-105 197 400 400" style="enable-background:new -105 197 400 400;" xml:space="preserve">
<style type="text/css">
	.st0{fill:#454545;}
</style>
<g>
	<g>
		<path class="st0" d="M95,197c-110.3,0-200,89.7-200,200s89.7,200,200,200s200-89.7,200-200S205.3,197,95,197z M95,570.8
			c-95.8,0-173.8-78-173.8-173.8S-0.9,223.2,95,223.2s173.8,78,173.8,173.8S190.8,570.8,95,570.8z"/>
		<path class="st0" d="M167.4,331.5L64.3,434.7L22.6,393c-5.1-5.1-13.4-5.1-18.5,0s-5.1,13.4,0,18.5l51,51c2.6,2.6,5.9,3.8,9.3,3.8
			s6.7-1.3,9.3-3.8l0,0L186,350.1c5.1-5.1,5.1-13.4,0-18.5C180.8,326.4,172.5,326.4,167.4,331.5z"/>
	</g>
</g>
</svg>
